#!OML:ASF X:\für Bonn\!DataBase\2005_08_11_Bastian_Final\c3d\Bastian.ASF
:FULLY-SPECIFIED
:DEGREES
170
root 4.2329 17.9879 -6.44105 107.481 101.591 -610.854
lowerback 3.23121 -3.51685 3.43106
upperback 4.89895 -4.58737 2.99706
thorax 3.22371 -2.1742 1.19704
lowerneck -11.7783 3.13457 -7.33764
upperneck 1.54757 5.16307 1.80141
head 2.3166 2.59055 2.16094
rclavicle -1.00386e-014 3.18055e-014
rhumerus -72.2807 0.566078 -75.6809
rradius 55.8877
rwrist 5.36426
rhand -18.1254 15.5829
rfingers 7.12502
rthumb 8.14928 -14.24
lclavicle -1.00386e-014 3.18055e-014
lhumerus -36.3783 -31.8534 103.749
lradius 101.177
lwrist 24.0978
lhand 4.03639 -16.8005
lfingers 7.12502
lthumb 29.4504 10.8849
rfemur -19.6821 2.84115 22.3429
rtibia 25.6475
rfoot -25.6208 -7.71284
rtoes -26.9535
lfemur 5.00238 -0.486711 -17.26
ltibia 65.3217
lfoot 2.87857 8.2915
ltoes -7.11738
171
root 4.49908 17.8855 -6.36334 105.919 101.648 -612.15
lowerback 3.4973 -3.56233 3.65242
upperback 4.96421 -4.62544 3.04938
thorax 3.13047 -2.18439 1.14461
lowerneck -11.5665 3.28159 -7.33985
upperneck 1.35686 5.34905 1.64327
head 2.20673 2.68292 2.10452
rclavicle 1.05356e-014 1.78906e-014
rhumerus -72.304 0.266217 -75.4805
rradius 57.0462
rwrist 5.39001
rhand -18.1486 15.3966
rfingers 7.12502
rthumb 8.12695 -14.4271
lclavicle 1.05356e-014 1.78906e-014
lhumerus -36.6993 -31.0809 103.708
lradius 99.9982
lwrist 23.5529
lhand 3.80924 -16.6074
lfingers 7.12502
lthumb 29.2336 11.1159
rfemur -19.1659 2.83166 22.5913
rtibia 25.5193
rfoot -24.9618 -7.34053
rtoes -28.7932
lfemur 4.15606 -0.318817 -16.9976
ltibia 67.9011
lfoot 2.46136 8.21222
ltoes -8.48193
172
root 4.76109 17.7738 -6.28841 104.497 101.778 -613.274
lowerback 3.819 -3.58854 3.95547
upperback 5.05858 -4.63059 3.08204
thorax 3.0289 -2.17418 1.0297
lowerneck -11.367 3.42469 -7.25839
upperneck 1.12119 5.51927 1.47548
head 2.08781 2.76945 2.02836
rclavicle 1.59028e-015 2.78299e-015
rhumerus -72.2529 0.070985 -75.5443
rradius 58.1781
rwrist 5.36102
rhand -18.3956 15.1118
rfingers 7.12502
rthumb 7.88856 -14.721
lclavicle 1.59028e-015 2.78299e-015
lhumerus -36.9474 -30.3148 103.584
lradius 98.7234
lwrist 23.0258
lhand 3.53405 -16.5064
lfingers 7.12502
lthumb 28.9708 11.2624
rfemur -18.8525 2.5265 22.9368
rtibia 25.8947
rfoot -23.8866 -6.53474
rtoes -30.3111
lfemur 3.27264 -0.17248 -16.7147
ltibia 70.5202
lfoot 2.06418 7.969
ltoes -9.80554
173
root 5.0145 17.6527 -6.21631 103.145 101.945 -614.311
lowerback 4.25543 -3.61534 4.26819
upperback 5.1391 -4.62429 3.13799
thorax 2.85057 -2.15918 0.94128
lowerneck -11.1311 3.57211 -7.21237
upperneck 0.832052 5.6956 1.33069
head 1.94389 2.8614 1.96356
rclavicle -3.66758e-014 -2.50469e-014
rhumerus -72.1805 0.0359416 -75.7073
rradius 59.3023
rwrist 5.27402
rhand -18.8117 14.8462
rfingers 7.12502
rthumb 7.48686 -15.0013
lclavicle -3.66758e-014 -2.50469e-014
lhumerus -37.2002 -29.4621 103.501
lradius 97.3464
lwrist 22.4036
lhand 3.12157 -16.5465
lfingers 7.12502
lthumb 28.5767 11.2892
rfemur -18.7599 1.98505 23.3302
rtibia 26.8099
rfoot -22.5977 -5.39854
rtoes -31.1731
lfemur 2.31361 -0.0888156 -16.4495
ltibia 73.1697
lfoot 1.59208 7.56259
ltoes -11.4096
174
root 5.2576 17.5232 -6.14666 101.852 102.169 -615.303
lowerback 4.77359 -3.62585 4.63792
upperback 5.21542 -4.58368 3.19404
thorax 2.61934 -2.12572 0.826228
lowerneck -10.941 3.71016 -7.08499
upperneck 0.547707 5.8536 1.15856
head 1.81464 2.94406 1.87639
rclavicle -2.92213e-014 1.70955e-014
rhumerus -72.211 0.0614826 -75.9571
rradius 60.5957
rwrist 5.31966
rhand -19.3625 14.6065
rfingers 7.12502
rthumb 6.95526 -15.2593
lclavicle -2.92213e-014 1.70955e-014
lhumerus -37.4747 -28.5674 103.411
lradius 95.8462
lwrist 21.7685
lhand 2.72029 -16.7295
lfingers 7.12502
lthumb 28.1932 11.1701
rfemur -18.9196 1.15765 23.7866
rtibia 28.2738
rfoot -21.3098 -3.89429
rtoes -31.8123
lfemur 1.21094 -0.0123679 -16.1444
ltibia 75.8612
lfoot 0.957235 6.98386
ltoes -12.9859
175
root 5.4924 17.388 -6.07987 100.647 102.477 -616.169
lowerback 5.40075 -3.63251 5.06164
upperback 5.30632 -4.52089 3.26963
thorax 2.34231 -2.07972 0.707066
lowerneck -10.7632 3.85659 -6.88819
upperneck 0.237668 6.01642 0.947867
head 1.68298 3.02929 1.76461
rclavicle -1.39149e-014 -4.37326e-015
rhumerus -72.1506 0.215793 -76.3176
rradius 61.8908
rwrist 5.40811
rhand -20.01 14.3939
rfingers 7.12502
rthumb 6.33015 -15.4915
lclavicle -1.39149e-014 -4.37326e-015
lhumerus -37.6578 -27.5833 103.267
lradius 94.1551
lwrist 21.2231
lhand 2.36172 -16.9706
lfingers 7.12502
lthumb 27.8505 10.9851
rfemur -19.2579 0.0423004 24.3296
rtibia 30.243
rfoot -20.137 -2.11273
rtoes -32.4577
lfemur 0.0188988 0.0556073 -15.7706
ltibia 78.5869
lfoot 0.168206 6.31925
ltoes -14.3501
176
root 5.72035 17.2526 -6.01602 99.5817 102.82 -616.917
lowerback 6.05607 -3.61473 5.51931
upperback 5.40342 -4.41443 3.34008
thorax 2.05655 -2.01086 0.56268
lowerneck -10.6506 3.9927 -6.61872
upperneck -0.0413737 6.16273 0.71779
head 1.57785 3.10526 1.63699
rclavicle 2.03754e-014 -2.66371e-014
rhumerus -71.7815 0.395704 -76.7933
rradius 62.8912
rwrist 5.60651
rhand -20.7627 14.3316
rfingers 7.12502
rthumb 5.6035 -15.5743
lclavicle 2.03754e-014 -2.66371e-014
lhumerus -37.8042 -26.5932 103.068
lradius 92.2758
lwrist 20.7508
lhand 2.03238 -17.176
lfingers 7.12502
lthumb 27.5356 10.8303
rfemur -19.79 -1.12612 24.8853
rtibia 32.6068
rfoot -18.8382 -0.387845
rtoes -32.8859
lfemur -1.36166 0.156067 -15.3416
ltibia 81.35
lfoot -0.711776 5.5624
ltoes -14.8749
